{
  "accessors": [
    {
      "bufferView": 2,
      "componentType": 5126,
      "count": 514,
      "max": [
        5.491966724395752,
        -5.381533622741699,
        161.59674072265625
      ],
      "min": [
        -5.494894504547119,
        -7.246576309204102,
        157.559326171875
      ],
      "type": "VEC3"
    },
    {
      "bufferView": 2,
      "byteOffset": 6168,
      "componentType": 5126,
      "count": 514,
      "max": [
        0.9951847195625305,
        -0.0980072095990181,
        0.9951853156089783
      ],
      "min": [
        -0.9951847195625305,
        -1.0,
        -0.995185375213623
      ],
      "type": "VEC3"
    },
    {
      "bufferView": 1,
      "componentType": 5126,
      "count": 514,
      "max": [
        0.7167516350746155,
        0.7095710039138794
      ],
      "min": [
        0.03249639272689819,
        0.025746598839759827
      ],
      "type": "VEC2"
    },
    {
      "bufferView": 0,
      "componentType": 5125,
      "count": 2880,
      "type": "SCALAR"
    },
    {
      "bufferView": 2,
      "byteOffset": 12336,
      "componentType": 5126,
      "count": 1993,
      "max": [
        23.344478607177734,
        17.39427375793457,
        172.98638916015625
      ],
      "min": [
        -23.344478607177734,
        -12.513129234313965,
        125.61463165283203
      ],
      "type": "VEC3"
    },
    {
      "bufferView": 2,
      "byteOffset": 36252,
      "componentType": 5126,
      "count": 1993,
      "max": [
        0.9994298219680786,
        0.9997249245643616,
        0.9995225071907043
      ],
      "min": [
        -0.9994298815727234,
        -0.9999664425849915,
        -0.9972172975540161
      ],
      "type": "VEC3"
    },
    {
      "bufferView": 1,
      "byteOffset": 4112,
      "componentType": 5126,
      "count": 1993,
      "max": [
        0.9494922161102295,
        0.9799999594688416
      ],
      "min": [
        0.019999999552965164,
        0.019999999552965164
      ],
      "type": "VEC2"
    },
    {
      "bufferView": 0,
      "byteOffset": 11520,
      "componentType": 5125,
      "count": 11052,
      "type": "SCALAR"
    },
    {
      "bufferView": 2,
      "byteOffset": 60168,
      "componentType": 5126,
      "count": 106,
      "max": [
        5.66904878616333,
        -6.755693435668945,
        160.47158813476563
      ],
      "min": [
        -5.66904878616333,
        -8.065204620361328,
        158.60006713867188
      ],
      "type": "VEC3"
    },
    {
      "bufferView": 2,
      "byteOffset": 61440,
      "componentType": 5126,
      "count": 106,
      "max": [
        0.7187960743904114,
        -0.07750678062438965,
        0.8779900074005127
      ],
      "min": [
        -0.7188465595245361,
        -0.9940068125724792,
        -0.9946613907814026
      ],
      "type": "VEC3"
    },
    {
      "bufferView": 1,
      "byteOffset": 20056,
      "componentType": 5126,
      "count": 106,
      "max": [
        0.3470856547355652,
        0.9726927280426025
      ],
      "min": [
        0.0605974942445755,
        0.7770152688026428
      ],
      "type": "VEC2"
    },
    {
      "bufferView": 0,
      "byteOffset": 55728,
      "componentType": 5125,
      "count": 396,
      "type": "SCALAR"
    },
    {
      "bufferView": 2,
      "byteOffset": 62712,
      "componentType": 5126,
      "count": 1993,
      "max": [
        23.62276268005371,
        17.69366455078125,
        173.2857666015625
      ],
      "min": [
        -23.62276268005371,
        -12.806686401367188,
        125.54256439208984
      ],
      "type": "VEC3"
    },
    {
      "bufferView": 2,
      "byteOffset": 86628,
      "componentType": 5126,
      "count": 1993,
      "max": [
        0.9993856549263,
        0.9997236132621765,
        0.9979653358459473
      ],
      "min": [
        -0.9993855953216553,
        -0.9999875426292419,
        -0.9998389482498169
      ],
      "type": "VEC3"
    },
    {
      "bufferView": 1,
      "byteOffset": 20904,
      "componentType": 5126,
      "count": 1993,
      "max": [
        0.9494922161102295,
        0.9799999594688416
      ],
      "min": [
        0.019999999552965164,
        0.019999999552965164
      ],
      "type": "VEC2"
    },
    {
      "bufferView": 0,
      "byteOffset": 57312,
      "componentType": 5125,
      "count": 11052,
      "type": "SCALAR"
    }
  ],
  "asset": {
    "extras": {
      "author": "Anna.Espenstein (https://sketchfab.com/Anna.Espenstein)",
      "license": "CC-BY-4.0 (http://creativecommons.org/licenses/by/4.0/)",
      "source": "https://sketchfab.com/3d-models/girl-portrait-hand-paint-practice-94446a47e03c40a8870cc88c1622e9f8",
      "title": "Girl portrait hand paint practice"
    },
    "generator": "Sketchfab-15.22.0",
    "version": "2.0"
  },
  "bufferViews": [
    {
      "buffer": 0,
      "byteLength": 101520,
      "name": "floatBufferViews",
      "target": 34963
    },
    {
      "buffer": 0,
      "byteLength": 36848,
      "byteOffset": 101520,
      "byteStride": 8,
      "name": "floatBufferViews",
      "target": 34962
    },
    {
      "buffer": 0,
      "byteLength": 110544,
      "byteOffset": 138368,
      "byteStride": 12,
      "name": "floatBufferViews",
      "target": 34962
    }
  ],
  "buffers": [
    {
      "byteLength": 248912,
      "uri": "scene.bin"
    }
  ],
  "extensionsUsed": [
    "KHR_materials_unlit"
  ],
  "images": [
    {
      "uri": "female_eyes_eyelashes_baseColor.jpg"
    },
    {
      "uri": "Female_body_baseColor.jpg"
    },
    {
      "uri": "Female_strokes_baseColor.jpg"
    }
  ],
  "materials": [
    {
      "alphaMode": "BLEND",
      "doubleSided": true,
      "extensions": {
        "KHR_materials_unlit": {}
      },
      "name": "female_eyes_eyelashes",
      "pbrMetallicRoughness": {
        "baseColorTexture": {
          "index": 0
        },
        "metallicFactor": 0.0
      }
    },
    {
      "doubleSided": true,
      "extensions": {
        "KHR_materials_unlit": {}
      },
      "name": "Female_body",
      "pbrMetallicRoughness": {
        "baseColorTexture": {
          "index": 1
        },
        "metallicFactor": 0.0
      }
    },
    {
      "alphaMode": "BLEND",
      "doubleSided": true,
      "extensions": {
        "KHR_materials_unlit": {}
      },
      "name": "Female_strokes",
      "pbrMetallicRoughness": {
        "baseColorTexture": {
          "index": 2
        },
        "metallicFactor": 0.0
      }
    }
  ],
  "meshes": [
    {
      "name": "female eyes_female eyes eyelashes_0",
      "primitives": [
        {
          "attributes": {
            "NORMAL": 1,
            "POSITION": 0,
            "TEXCOORD_0": 2
          },
          "indices": 3,
          "material": 0,
          "mode": 4
        }
      ]
    },
    {
      "name": "female body_Female body_0",
      "primitives": [
        {
          "attributes": {
            "NORMAL": 5,
            "POSITION": 4,
            "TEXCOORD_0": 6
          },
          "indices": 7,
          "material": 1,
          "mode": 4
        }
      ]
    },
    {
      "name": "female eyelashes_female eyes eyelashes_0",
      "primitives": [
        {
          "attributes": {
            "NORMAL": 9,
            "POSITION": 8,
            "TEXCOORD_0": 10
          },
          "indices": 11,
          "material": 0,
          "mode": 4
        }
      ]
    },
    {
      "name": "female body outline_Female strokes_0",
      "primitives": [
        {
          "attributes": {
            "NORMAL": 13,
            "POSITION": 12,
            "TEXCOORD_0": 14
          },
          "indices": 15,
          "material": 2,
          "mode": 4
        }
      ]
    }
  ],
  "nodes": [
    {
      "children": [
        1
      ],
      "matrix": [
        1.0,
        0.0,
        0.0,
        0.0,
        0.0,
        2.220446049250313e-16,
        -1.0,
        0.0,
        0.0,
        1.0,
        2.220446049250313e-16,
        0.0,
        0.0,
        0.0,
        0.0,
        1.0
      ],
      "name": "Sketchfab_model"
    },
    {
      "children": [
        2
      ],
      "matrix": [
        0.009999999776482582,
        0.0,
        0.0,
        0.0,
        0.0,
        0.0,
        0.009999999776482582,
        0.0,
        0.0,
        -0.009999999776482582,
        0.0,
        0.0,
        0.0,
        0.0,
        0.0,
        1.0
      ],
      "name": "female low poly sketchfab.fbx"
    },
    {
      "children": [
        3,
        5,
        7,
        9
      ],
      "name": "RootNode"
    },
    {
      "children": [
        4
      ],
      "matrix": [
        1.0,
        0.0,
        0.0,
        0.0,
        0.0,
        2.220446049250313e-16,
        -1.0,
        0.0,
        0.0,
        1.0,
        2.220446049250313e-16,
        0.0,
        0.0,
        0.0,
        0.0,
        1.0
      ],
      "name": "female eyes"
    },
    {
      "mesh": 0,
      "name": "female eyes_female eyes eyelashes_0"
    },
    {
      "children": [
        6
      ],
      "matrix": [
        1.0,
        0.0,
        0.0,
        0.0,
        0.0,
        2.220446049250313e-16,
        -1.0,
        0.0,
        0.0,
        1.0,
        2.220446049250313e-16,
        0.0,
        0.0,
        0.0,
        0.0,
        1.0
      ],
      "name": "female body"
    },
    {
      "mesh": 1,
      "name": "female body_Female body_0"
    },
    {
      "children": [
        8
      ],
      "matrix": [
        1.0,
        0.0,
        0.0,
        0.0,
        0.0,
        2.220446049250313e-16,
        -1.0,
        0.0,
        0.0,
        1.0,
        2.220446049250313e-16,
        0.0,
        0.0,
        0.0,
        0.0,
        1.0
      ],
      "name": "female eyelashes"
    },
    {
      "mesh": 2,
      "name": "female eyelashes_female eyes eyelashes_0"
    },
    {
      "children": [
        10
      ],
      "matrix": [
        1.0,
        0.0,
        0.0,
        0.0,
        0.0,
        2.220446049250313e-16,
        -1.0,
        0.0,
        0.0,
        1.0,
        2.220446049250313e-16,
        0.0,
        0.0,
        0.0,
        0.0,
        1.0
      ],
      "name": "female body outline"
    },
    {
      "mesh": 3,
      "name": "female body outline_Female strokes_0"
    }
  ],
  "samplers": [
    {
      "magFilter": 9729,
      "minFilter": 9987,
      "wrapS": 10497,
      "wrapT": 10497
    }
  ],
  "scene": 0,
  "scenes": [
    {
      "name": "Sketchfab_Scene",
      "nodes": [
        0
      ]
    }
  ],
  "textures": [
    {
      "sampler": 0,
      "source": 0
    },
    {
      "sampler": 0,
      "source": 1
    },
    {
      "sampler": 0,
      "source": 2
    }
  ]
}
