<svg xmlns="http://www.w3.org/2000/svg" viewBox="0 0 128 128">
  <defs>
    <linearGradient id="bg" x1="0" y1="0" x2="1" y2="1">
      <stop stop-color="#392a70"/>
      <stop offset="1" stop-color="#102f49"/>
    </linearGradient>
    <linearGradient id="hair" x1="0" y1="0" x2="1" y2="1">
      <stop stop-color="#d69cff"/>
      <stop offset=".56" stop-color="#8754d4"/>
      <stop offset="1" stop-color="#483077"/>
    </linearGradient>
    <linearGradient id="coat" x1="0" y1="0" x2="1" y2="1">
      <stop stop-color="#58e1e6"/>
      <stop offset=".5" stop-color="#a47bff"/>
      <stop offset="1" stop-color="#342454"/>
    </linearGradient>
    <filter id="glow">
      <feGaussianBlur stdDeviation="4" result="blur"/>
      <feMerge><feMergeNode in="blur"/><feMergeNode in="SourceGraphic"/></feMerge>
    </filter>
  </defs>
  <circle cx="64" cy="64" r="64" fill="url(#bg)"/>
  <path d="M14 116c5-22 22-34 50-34s45 12 50 34v12H14z" fill="url(#coat)"/>
  <path d="M43 83l21 20 21-20 10 8-10 37H43l-10-37z" fill="#17152c"/>
  <path d="M49 75h30v22c-7 9-23 9-30 0z" fill="#e5ad9e"/>
  <path d="M34 55c-2-22 11-38 32-39 21-1 33 14 31 37l-3 22c-2 15-14 26-30 26-17 0-28-12-30-28z" fill="url(#hair)"/>
  <path d="M39 60c5-4 9-10 11-18 8 8 21 12 40 11l5 27c-2 12-13 22-29 22-17 0-28-12-30-28z" fill="#f0bca9"/>
  <path d="M35 60c-8-31 7-49 29-50 22-1 40 15 34 45-7-7-12-15-15-24-12 13-27 20-47 22z" fill="url(#hair)"/>
  <path d="M36 55c-7 21-8 41 3 54-17-8-23-30-17-52 4-17 12-31 26-39-6 12-9 24-12 37z" fill="#7549bb"/>
  <path d="M91 50c11 17 10 42 0 55 15-6 22-27 17-48-3-16-11-29-23-37 4 12 5 21 6 30z" fill="#4b347f"/>
  <path d="M48 67c4-3 8-3 12-1M72 66c4-2 8-2 12 1" fill="none" stroke="#4e3154" stroke-width="2" stroke-linecap="round"/>
  <path d="M59 84c4 3 9 3 13 0" fill="none" stroke="#bd6679" stroke-width="2" stroke-linecap="round"/>
  <path d="M47 72h13m9 0h13" stroke="#5ce1e6" stroke-width="1.5" opacity=".85" filter="url(#glow)"/>
  <circle cx="96" cy="29" r="3" fill="#5ce1e6" filter="url(#glow)"/>
</svg>
